<svg width="272" height="273" viewBox="0 0 272 273" fill="none" xmlns="http://www.w3.org/2000/svg">
<ellipse cx="121.854" cy="243.863" rx="4.09568" ry="4.06372" transform="rotate(-54.7634 121.854 243.863)" fill="#0D6A2E" fill-opacity="0.19"/>
<ellipse cx="138.45" cy="255.586" rx="4.09568" ry="4.06372" transform="rotate(-54.7634 138.45 255.586)" fill="#0D6A2E" fill-opacity="0.19"/>
<ellipse cx="155.044" cy="267.309" rx="4.09568" ry="4.06372" transform="rotate(-54.7634 155.044 267.309)" fill="#0D6A2E" fill-opacity="0.19"/>
<ellipse cx="149.476" cy="239.977" rx="4.09568" ry="4.06372" transform="rotate(-54.7634 149.476 239.977)" fill="#0D6A2E" fill-opacity="0.19"/>
<ellipse cx="166.07" cy="251.7" rx="4.09568" ry="4.06372" transform="rotate(-54.7634 166.07 251.7)" fill="#0D6A2E" fill-opacity="0.19"/>
<ellipse cx="115.957" cy="5.69067" rx="4.09568" ry="4.06372" transform="rotate(-54.7634 115.957 5.69067)" fill="#0D6A2E" fill-opacity="0.19"/>
<path fill-rule="evenodd" clip-rule="evenodd" d="M86.1932 54.8694C87.4983 53.0218 87.0702 50.4744 85.2371 49.1795C83.404 47.8847 80.86 48.3327 79.5549 50.1802C78.2499 52.0277 78.6779 54.5752 80.511 55.87C82.3442 57.1649 84.8881 56.7169 86.1932 54.8694ZM20.0272 148.539C21.3323 146.691 20.9042 144.144 19.0711 142.849C17.238 141.554 14.694 142.002 13.3889 143.85C12.0838 145.697 12.5119 148.244 14.345 149.539C16.1781 150.834 18.7221 150.386 20.0272 148.539ZM8.04616 158.457C9.87928 159.752 10.3074 162.299 9.00229 164.147C7.69723 165.994 5.15324 166.442 3.32012 165.147C1.48701 163.852 1.05894 161.305 2.364 159.458C3.66906 157.61 6.21305 157.162 8.04616 158.457ZM189.571 178.243C181.151 187.908 170.295 195.395 157.959 199.747C158.063 199.631 158.161 199.507 158.253 199.377C159.558 197.53 159.13 194.982 157.297 193.687C155.464 192.392 152.92 192.84 151.614 194.688C150.309 196.536 150.737 199.083 152.571 200.378C153.017 200.693 153.505 200.905 154.007 201.018C147.341 202.959 140.292 204 133 204C132.005 204 131.014 203.981 130.029 203.942C130.25 203.742 130.454 203.514 130.634 203.259C131.939 201.411 131.511 198.864 129.678 197.569C127.844 196.274 125.3 196.722 123.995 198.57C122.917 200.096 123.022 202.099 124.124 203.48C96.5519 200.229 73.5586 182.022 63.4796 157.194C63.767 156.961 64.0277 156.685 64.2518 156.367C65.5569 154.52 65.1288 151.972 63.2957 150.678C62.5864 150.177 61.7707 149.936 60.9615 149.937C59.103 143.532 58.0756 136.773 58.004 129.785C58.2531 129.569 58.4804 129.321 58.679 129.04C59.8669 127.358 59.6189 125.096 58.1825 123.727C59.9531 98.2312 74.467 76.2444 95.3986 64.0924C95.3392 65.431 95.9368 66.7669 97.1063 67.5929C98.9394 68.8878 101.483 68.4398 102.788 66.5923C104.093 64.7447 103.665 62.1973 101.832 60.9024C101.792 60.8738 101.751 60.846 101.71 60.819C111.233 56.4411 121.832 53.9999 133 53.9999C139.084 53.9999 144.999 54.7244 150.663 56.0917C150.522 57.5039 151.119 58.9445 152.354 59.8168C154.187 61.1117 156.731 60.6637 158.036 58.8161C158.137 58.6736 158.227 58.527 158.308 58.3771C162.642 59.9304 166.791 61.8713 170.714 64.158C169.657 64.3232 168.662 64.9025 167.992 65.8499C166.687 67.6974 167.115 70.2448 168.949 71.5397C170.782 72.8346 173.326 72.3866 174.631 70.539C175.387 69.4683 175.561 68.1624 175.217 67.0016C179.188 69.7107 182.885 72.7913 186.259 76.1934C185.611 76.4849 185.029 76.9491 184.589 77.5727C183.284 79.4202 183.712 81.9676 185.545 83.2625C187.378 84.5574 189.922 84.1093 191.227 82.2618C191.296 82.1639 191.36 82.0641 191.42 81.9625C199.287 91.7215 204.759 103.492 206.943 116.382C206.877 116.462 206.814 116.545 206.753 116.631C205.449 118.477 205.876 121.023 207.706 122.319C207.901 124.52 208 126.748 208 129C208 139.683 205.766 149.844 201.741 159.042C201.58 159.204 201.43 159.382 201.294 159.574C200.85 160.203 200.607 160.912 200.551 161.625C198.533 165.796 196.141 169.75 193.417 173.446C192.204 173.507 191.027 174.108 190.269 175.182C189.614 176.108 189.396 177.211 189.571 178.243ZM189.571 178.243C189.746 179.269 190.311 180.226 191.225 180.872C193.058 182.167 195.602 181.719 196.907 179.871C198.212 178.024 197.784 175.476 195.951 174.181C195.183 173.639 194.291 173.403 193.417 173.446C192.2 175.098 190.917 176.698 189.571 178.243ZM200.551 161.625C200.443 163.01 201.041 164.41 202.25 165.264C204.083 166.559 206.627 166.111 207.932 164.264C209.238 162.416 208.809 159.869 206.976 158.574C205.334 157.414 203.122 157.652 201.741 159.042C201.36 159.912 200.963 160.773 200.551 161.625ZM207.706 122.319L207.709 122.321C209.542 123.615 212.086 123.167 213.391 121.32C214.697 119.472 214.268 116.925 212.435 115.63C210.687 114.395 208.293 114.745 206.943 116.382C207.274 118.336 207.53 120.316 207.706 122.319ZM191.42 81.9625C192.483 80.1478 192.007 77.7982 190.271 76.572C189.056 75.7142 187.53 75.6212 186.259 76.1934C188.075 78.0258 189.798 79.9514 191.42 81.9625ZM175.217 67.0016C174.968 66.1594 174.445 65.3936 173.675 64.8492C172.781 64.2183 171.719 64.0011 170.714 64.158C172.251 65.0537 173.753 66.0023 175.217 67.0016ZM158.308 58.3771C159.267 56.5831 158.772 54.3213 157.08 53.1263C155.247 51.8314 152.703 52.2794 151.398 54.127C150.972 54.7299 150.731 55.4075 150.663 56.0917C153.267 56.7202 155.818 57.4847 158.308 58.3771ZM101.71 60.819C99.8872 59.6281 97.4263 60.0965 96.1501 61.9031C95.6776 62.572 95.4323 63.3326 95.3986 64.0924C97.443 62.9055 99.5486 61.8124 101.71 60.819ZM58.1825 123.727C58.0408 123.592 57.8875 123.466 57.7229 123.35C55.8898 122.055 53.3458 122.503 52.0408 124.35C50.7357 126.198 51.1638 128.745 52.9969 130.04C54.551 131.138 56.6162 130.983 58.004 129.785C58.0013 129.523 58 129.262 58 129C58 127.227 58.0615 125.469 58.1825 123.727ZM60.9615 149.937C59.6794 149.939 58.4136 150.546 57.6135 151.678C56.3085 153.526 56.7365 156.073 58.5696 157.368C60.0879 158.441 62.0939 158.317 63.4796 157.194C62.5211 154.832 61.6793 152.411 60.9615 149.937ZM124.124 203.48C124.356 203.771 124.632 204.034 124.951 204.26C126.532 205.376 128.641 205.197 130.029 203.942C128.04 203.865 126.07 203.71 124.124 203.48ZM154.007 201.018C155.423 201.339 156.95 200.878 157.959 199.747C156.658 200.206 155.34 200.63 154.007 201.018ZM25.5975 175.87C26.9026 174.023 26.4745 171.475 24.6414 170.18C22.8083 168.886 20.2643 169.334 18.9592 171.181C17.6542 173.029 18.0822 175.576 19.9153 176.871C21.7485 178.166 24.2924 177.718 25.5975 175.87ZM41.2371 181.904C43.0702 183.199 43.4983 185.746 42.1932 187.593C40.8881 189.441 38.3442 189.889 36.511 188.594C34.6779 187.299 34.2499 184.752 35.5549 182.904C36.86 181.057 39.404 180.609 41.2371 181.904ZM58.7884 199.316C60.0935 197.468 59.6654 194.921 57.8323 193.626C55.9992 192.331 53.4552 192.779 52.1501 194.627C50.8451 196.474 51.2731 199.022 53.1063 200.317C54.9394 201.612 57.4834 201.164 58.7884 199.316ZM74.428 205.349C76.2611 206.644 76.6892 209.191 75.3841 211.039C74.0791 212.886 71.5351 213.334 69.702 212.039C67.8688 210.745 67.4408 208.197 68.7458 206.35C70.0509 204.502 72.5949 204.054 74.428 205.349ZM91.9798 222.762C93.2849 220.914 92.8568 218.367 91.0237 217.072C89.1906 215.777 86.6466 216.225 85.3415 218.073C84.0365 219.92 84.4646 222.467 86.2977 223.762C88.1308 225.057 90.6748 224.609 91.9798 222.762ZM107.622 228.795C109.455 230.09 109.884 232.638 108.578 234.485C107.273 236.333 104.729 236.781 102.896 235.486C101.063 234.191 100.635 231.644 101.94 229.796C103.245 227.949 105.789 227.5 107.622 228.795ZM35.6663 154.572C37.4994 155.866 37.9275 158.414 36.6224 160.261C35.3173 162.109 32.7734 162.557 30.9402 161.262C29.1071 159.967 28.6791 157.42 29.9841 155.572C31.2892 153.725 33.8332 153.277 35.6663 154.572ZM53.2196 171.985C54.5246 170.138 54.0966 167.59 52.2635 166.295C50.4303 165 47.8863 165.448 46.5813 167.296C45.2762 169.143 45.7043 171.691 47.5374 172.986C49.3705 174.281 51.9145 173.833 53.2196 171.985ZM68.8596 178.018C70.6928 179.313 71.1208 181.86 69.8158 183.708C68.5107 185.555 65.9667 186.003 64.1336 184.708C62.3005 183.414 61.8724 180.866 63.1775 179.019C64.4825 177.171 67.0265 176.723 68.8596 178.018ZM86.412 195.431C87.717 193.583 87.2889 191.036 85.4558 189.741C83.6227 188.446 81.0787 188.894 79.7737 190.741C78.4686 192.589 78.8967 195.136 80.7298 196.431C82.5629 197.726 85.1069 197.278 86.412 195.431ZM102.05 201.463C103.883 202.758 104.311 205.306 103.006 207.153C101.701 209.001 99.1571 209.449 97.324 208.154C95.4909 206.859 95.0628 204.312 96.3679 202.464C97.673 200.616 100.217 200.168 102.05 201.463ZM119.603 218.876C120.908 217.029 120.48 214.481 118.647 213.186C116.814 211.892 114.27 212.34 112.965 214.187C111.66 216.035 112.088 218.582 113.921 219.877C115.754 221.172 118.298 220.724 119.603 218.876ZM135.242 224.91C137.075 226.204 137.503 228.752 136.198 230.599C134.893 232.447 132.349 232.895 130.516 231.6C128.683 230.305 128.255 227.758 129.56 225.91C130.865 224.063 133.409 223.615 135.242 224.91ZM31.0604 132.922C32.3655 131.074 31.9374 128.527 30.1043 127.232C28.2712 125.937 25.7272 126.385 24.4221 128.233C23.117 130.08 23.5451 132.628 25.3782 133.923C27.2113 135.217 29.7553 134.769 31.0604 132.922ZM46.6995 138.955C48.5326 140.25 48.9607 142.797 47.6556 144.645C46.3506 146.492 43.8066 146.94 41.9734 145.645C40.1403 144.351 39.7123 141.803 41.0173 139.956C42.3224 138.108 44.8664 137.66 46.6995 138.955ZM79.8909 162.4C81.724 163.695 82.1521 166.243 80.847 168.09C79.542 169.938 76.998 170.386 75.1649 169.091C73.3317 167.796 72.9037 165.249 74.2087 163.401C75.5138 161.553 78.0578 161.105 79.8909 162.4ZM97.4422 179.813C98.7473 177.965 98.3192 175.418 96.4861 174.123C94.653 172.828 92.109 173.276 90.8039 175.124C89.4989 176.971 89.927 179.519 91.7601 180.814C93.5932 182.108 96.1372 181.66 97.4422 179.813ZM113.081 185.847C114.914 187.142 115.343 189.689 114.037 191.536C112.732 193.384 110.188 193.832 108.355 192.537C106.522 191.242 106.094 188.695 107.399 186.847C108.704 185 111.248 184.552 113.081 185.847ZM146.273 209.292C148.106 210.587 148.534 213.134 147.229 214.982C145.924 216.829 143.38 217.277 141.547 215.982C139.714 214.688 139.286 212.14 140.591 210.293C141.896 208.445 144.44 207.997 146.273 209.292ZM163.826 226.705C165.131 224.857 164.703 222.31 162.869 221.015C161.036 219.72 158.492 220.168 157.187 222.016C155.882 223.863 156.31 226.411 158.143 227.706C159.976 229 162.52 228.552 163.826 226.705ZM179.464 232.738C181.297 234.033 181.725 236.58 180.42 238.428C179.115 240.275 176.571 240.723 174.738 239.429C172.905 238.134 172.477 235.586 173.782 233.739C175.087 231.891 177.631 231.443 179.464 232.738ZM42.0833 117.317C43.3884 115.469 42.9603 112.922 41.1272 111.627C39.2941 110.332 36.7501 110.78 35.4451 112.627C34.14 114.475 34.5681 117.022 36.4012 118.317C38.2343 119.612 40.7783 119.164 42.0833 117.317ZM75.2738 140.763C76.5788 138.915 76.1508 136.368 74.3176 135.073C72.4845 133.778 69.9405 134.226 68.6355 136.074C67.3304 137.921 67.7585 140.469 69.5916 141.763C71.4247 143.058 73.9687 142.61 75.2738 140.763ZM90.9138 146.796C92.747 148.09 93.175 150.638 91.87 152.485C90.5649 154.333 88.0209 154.781 86.1878 153.486C84.3547 152.191 83.9266 149.644 85.2317 147.796C86.5367 145.949 89.0807 145.501 90.9138 146.796ZM108.465 164.208C109.77 162.361 109.342 159.813 107.509 158.518C105.675 157.224 103.131 157.672 101.826 159.519C100.521 161.367 100.949 163.914 102.783 165.209C104.616 166.504 107.16 166.056 108.465 164.208ZM124.105 170.241C125.938 171.536 126.366 174.084 125.061 175.931C123.756 177.779 121.212 178.227 119.379 176.932C117.546 175.637 117.118 173.089 118.423 171.242C119.728 169.394 122.272 168.946 124.105 170.241ZM141.657 187.654C142.962 185.807 142.534 183.259 140.7 181.965C138.867 180.67 136.323 181.118 135.018 182.965C133.713 184.813 134.141 187.36 135.974 188.655C137.808 189.95 140.352 189.502 141.657 187.654ZM174.847 211.1C176.152 209.252 175.724 206.705 173.891 205.41C172.058 204.115 169.514 204.563 168.209 206.411C166.904 208.258 167.332 210.806 169.165 212.101C170.998 213.395 173.542 212.947 174.847 211.1ZM190.488 217.133C192.321 218.428 192.749 220.975 191.444 222.822C190.139 224.67 187.595 225.118 185.762 223.823C183.928 222.528 183.5 219.981 184.805 218.133C186.11 216.286 188.654 215.838 190.488 217.133ZM53.1126 101.703C54.4177 99.8551 53.9896 97.3077 52.1565 96.0128C50.3234 94.7179 47.7794 95.1659 46.4744 97.0134C45.1693 98.861 45.5974 101.408 47.4305 102.703C49.2636 103.998 51.8076 103.55 53.1126 101.703ZM68.7512 107.736C70.5844 109.031 71.0124 111.578 69.7074 113.426C68.4023 115.274 65.8583 115.722 64.0252 114.427C62.1921 113.132 61.764 110.584 63.0691 108.737C64.3741 106.889 66.9181 106.441 68.7512 107.736ZM86.3031 125.149C87.6081 123.301 87.1801 120.754 85.3469 119.459C83.5138 118.164 80.9698 118.612 79.6648 120.46C78.3597 122.307 78.7878 124.855 80.6209 126.149C82.454 127.444 84.998 126.996 86.3031 125.149ZM101.943 131.182C103.776 132.476 104.204 135.024 102.899 136.871C101.594 138.719 99.0502 139.167 97.2171 137.872C95.384 136.577 94.9559 134.03 96.261 132.182C97.566 130.335 100.11 129.887 101.943 131.182ZM119.494 148.594C120.8 146.747 120.371 144.199 118.538 142.904C116.705 141.61 114.161 142.058 112.856 143.905C111.551 145.753 111.979 148.3 113.812 149.595C115.645 150.89 118.189 150.442 119.494 148.594ZM135.134 154.627C136.967 155.922 137.395 158.469 136.09 160.317C134.785 162.165 132.241 162.613 130.408 161.318C128.574 160.023 128.146 157.475 129.451 155.628C130.756 153.78 133.3 153.332 135.134 154.627ZM152.686 172.04C153.991 170.193 153.563 167.645 151.73 166.351C149.897 165.056 147.353 165.504 146.048 167.351C144.743 169.199 145.171 171.746 147.004 173.041C148.837 174.336 151.381 173.888 152.686 172.04ZM168.324 178.073C170.158 179.368 170.586 181.916 169.281 183.763C167.976 185.611 165.432 186.059 163.598 184.764C161.765 183.469 161.337 180.922 162.642 179.074C163.947 177.226 166.491 176.778 168.324 178.073ZM185.877 195.486C187.182 193.638 186.754 191.091 184.921 189.796C183.088 188.501 180.544 188.949 179.239 190.796C177.933 192.644 178.362 195.191 180.195 196.486C182.028 197.781 184.572 197.333 185.877 195.486ZM201.518 201.519C203.351 202.814 203.779 205.362 202.474 207.209C201.169 209.057 198.625 209.505 196.792 208.21C194.959 206.915 194.531 204.368 195.836 202.52C197.141 200.673 199.685 200.225 201.518 201.519ZM64.1419 86.0881C65.447 84.2406 65.0189 81.6932 63.1858 80.3983C61.3527 79.1034 58.8087 79.5514 57.5036 81.3989C56.1986 83.2465 56.6267 85.7939 58.4598 87.0888C60.2929 88.3837 62.8369 87.9356 64.1419 86.0881ZM79.78 92.1209C81.6132 93.4158 82.0412 95.9632 80.7362 97.8108C79.4311 99.6583 76.8871 100.106 75.054 98.8114C73.2209 97.5166 72.7928 94.9691 74.0979 93.1216C75.4029 91.2741 77.9469 90.8261 79.78 92.1209ZM97.3343 109.535C98.6394 107.687 98.2113 105.14 96.3782 103.845C94.5451 102.55 92.0011 102.998 90.696 104.845C89.391 106.693 89.819 109.24 91.6522 110.535C93.4853 111.83 96.0293 111.382 97.3343 109.535ZM112.974 115.567C114.807 116.862 115.235 119.41 113.93 121.257C112.625 123.105 110.081 123.553 108.248 122.258C106.415 120.963 105.987 118.416 107.292 116.568C108.597 114.72 111.141 114.272 112.974 115.567ZM130.526 132.98C131.831 131.132 131.403 128.585 129.57 127.29C127.736 125.995 125.192 126.443 123.887 128.291C122.582 130.138 123.01 132.686 124.844 133.98C126.677 135.275 129.221 134.827 130.526 132.98ZM146.166 139.013C147.999 140.307 148.427 142.855 147.122 144.702C145.817 146.55 143.273 146.998 141.44 145.703C139.607 144.408 139.179 141.861 140.484 140.013C141.789 138.166 144.333 137.718 146.166 139.013ZM163.717 156.426C165.022 154.578 164.594 152.031 162.761 150.736C160.927 149.441 158.383 149.889 157.078 151.737C155.773 153.584 156.201 156.132 158.034 157.427C159.868 158.722 162.412 158.274 163.717 156.426ZM179.357 162.459C181.19 163.753 181.618 166.301 180.313 168.148C179.008 169.996 176.464 170.444 174.631 169.149C172.798 167.854 172.369 165.307 173.675 163.459C174.98 161.612 177.524 161.164 179.357 162.459ZM212.547 185.904C214.38 187.199 214.808 189.747 213.503 191.594C212.198 193.442 209.654 193.89 207.821 192.595C205.988 191.3 205.56 188.753 206.865 186.905C208.17 185.058 210.714 184.61 212.547 185.904ZM75.1668 70.4801C76.4719 68.6325 76.0438 66.0851 74.2107 64.7902C72.3776 63.4954 69.8336 63.9434 68.5285 65.7909C67.2235 67.6385 67.6516 70.1859 69.4847 71.4808C71.3178 72.7756 73.8618 72.3276 75.1668 70.4801ZM90.8059 76.5131C92.639 77.808 93.0671 80.3554 91.7621 82.203C90.457 84.0505 87.913 84.4985 86.0799 83.2036C84.2468 81.9088 83.8187 79.3614 85.1238 77.5138C86.4288 75.6663 88.9728 75.2183 90.8059 76.5131ZM108.359 93.9264C109.664 92.0788 109.236 89.5314 107.403 88.2365C105.57 86.9417 103.026 87.3897 101.721 89.2372C100.416 91.0847 100.844 93.6322 102.677 94.927C104.51 96.2219 107.054 95.7739 108.359 93.9264ZM123.999 99.9591C125.832 101.254 126.26 103.801 124.955 105.649C123.65 107.496 121.106 107.944 119.273 106.65C117.44 105.355 117.012 102.807 118.317 100.96C119.622 99.1122 122.166 98.6642 123.999 99.9591ZM141.551 117.372C142.856 115.524 142.428 112.977 140.595 111.682C138.762 110.387 136.218 110.835 134.913 112.683C133.608 114.53 134.036 117.077 135.869 118.372C137.702 119.667 140.246 119.219 141.551 117.372ZM157.19 123.405C159.023 124.7 159.451 127.248 158.146 129.095C156.841 130.943 154.297 131.391 152.464 130.096C150.631 128.801 150.203 126.253 151.508 124.406C152.813 122.558 155.357 122.11 157.19 123.405ZM174.742 140.818C176.047 138.97 175.619 136.423 173.785 135.128C171.952 133.833 169.408 134.281 168.103 136.129C166.798 137.976 167.226 140.524 169.059 141.819C170.893 143.113 173.436 142.665 174.742 140.818ZM190.382 146.851C192.215 148.146 192.643 150.693 191.338 152.541C190.033 154.388 187.489 154.836 185.656 153.541C183.823 152.246 183.395 149.699 184.7 147.851C186.005 146.004 188.549 145.556 190.382 146.851ZM223.573 170.296C225.406 171.591 225.834 174.139 224.529 175.986C223.224 177.834 220.68 178.282 218.846 176.987C217.013 175.692 216.585 173.145 217.89 171.297C219.195 169.45 221.739 169.002 223.573 170.296ZM119.386 78.3158C120.691 76.4682 120.263 73.9208 118.43 72.6259C116.597 71.3311 114.053 71.7791 112.748 73.6266C111.443 75.4741 111.871 78.0216 113.704 79.3164C115.537 80.6113 118.081 80.1633 119.386 78.3158ZM135.027 84.3485C136.86 85.6433 137.288 88.1908 135.983 90.0383C134.678 91.8858 132.134 92.3339 130.301 91.039C128.467 89.7441 128.039 87.1967 129.344 85.3492C130.65 83.5016 133.194 83.0536 135.027 84.3485ZM152.577 101.761C153.883 99.9133 153.454 97.3659 151.621 96.071C149.788 94.7761 147.244 95.2241 145.939 97.0717C144.634 98.9192 145.062 101.467 146.895 102.762C148.728 104.056 151.272 103.608 152.577 101.761ZM168.217 107.794C170.05 109.089 170.478 111.636 169.173 113.484C167.868 115.331 165.324 115.779 163.491 114.484C161.657 113.19 161.229 110.642 162.534 108.795C163.839 106.947 166.383 106.499 168.217 107.794ZM185.769 125.207C187.074 123.359 186.646 120.812 184.813 119.517C182.98 118.222 180.436 118.67 179.131 120.518C177.826 122.365 178.254 124.913 180.087 126.208C181.92 127.503 184.464 127.055 185.769 125.207ZM201.408 131.24C203.241 132.535 203.669 135.082 202.364 136.93C201.059 138.777 198.515 139.225 196.682 137.931C194.849 136.636 194.421 134.088 195.726 132.241C197.031 130.393 199.575 129.945 201.408 131.24ZM218.959 148.653C220.264 146.805 219.836 144.258 218.003 142.963C216.17 141.668 213.626 142.116 212.321 143.963C211.016 145.811 211.444 148.358 213.277 149.653C215.11 150.948 217.654 150.5 218.959 148.653ZM234.6 154.686C236.433 155.981 236.861 158.528 235.556 160.376C234.251 162.223 231.707 162.671 229.874 161.376C228.041 160.082 227.613 157.534 228.918 155.687C230.223 153.839 232.767 153.391 234.6 154.686ZM97.2206 39.2595C98.5256 37.412 98.0975 34.8645 96.2644 33.5697C94.4313 32.2748 91.8873 32.7228 90.5823 34.5703C89.2772 36.4179 89.7053 38.9653 91.5384 40.2602C93.3715 41.555 95.9155 41.107 97.2206 39.2595ZM112.859 45.2927C114.692 46.5876 115.12 49.135 113.815 50.9825C112.51 52.8301 109.966 53.2781 108.133 51.9832C106.3 50.6883 105.871 48.1409 107.176 46.2934C108.482 44.4458 111.026 43.9978 112.859 45.2927ZM130.411 62.7051C131.717 60.8575 131.288 58.3101 129.455 57.0152C127.622 55.7203 125.078 56.1684 123.773 58.0159C122.468 59.8634 122.896 62.4108 124.729 63.7057C126.562 65.0006 129.106 64.5526 130.411 62.7051ZM146.053 68.7385C147.886 70.0334 148.314 72.5808 147.009 74.4283C145.704 76.2759 143.16 76.7239 141.326 75.429C139.493 74.1341 139.065 71.5867 140.37 69.7392C141.675 67.8916 144.219 67.4436 146.053 68.7385ZM163.603 86.1507C164.908 84.3032 164.48 81.7558 162.647 80.4609C160.814 79.166 158.27 79.614 156.965 81.4616C155.66 83.3091 156.088 85.8565 157.921 87.1514C159.754 88.4463 162.298 87.9983 163.603 86.1507ZM179.241 92.1837C181.075 93.4785 181.503 96.026 180.198 97.8735C178.893 99.721 176.349 100.169 174.515 98.8742C172.682 97.5793 172.254 95.0319 173.559 93.1844C174.864 91.3368 177.408 90.8888 179.241 92.1837ZM196.795 109.597C198.1 107.75 197.672 105.202 195.839 103.907C194.006 102.613 191.462 103.061 190.157 104.908C188.852 106.756 189.28 109.303 191.113 110.598C192.946 111.893 195.49 111.445 196.795 109.597ZM229.987 133.043C231.292 131.195 230.864 128.648 229.031 127.353C227.198 126.058 224.654 126.506 223.349 128.354C222.044 130.201 222.472 132.749 224.305 134.043C226.138 135.338 228.682 134.89 229.987 133.043ZM245.626 139.076C247.459 140.371 247.887 142.918 246.582 144.766C245.277 146.613 242.733 147.061 240.9 145.766C239.067 144.472 238.639 141.924 239.944 140.077C241.249 138.229 243.793 137.781 245.626 139.076ZM108.249 23.6473C109.554 21.7998 109.126 19.2524 107.293 17.9575C105.46 16.6626 102.916 17.1106 101.611 18.9582C100.306 20.8057 100.734 23.3531 102.567 24.648C104.4 25.9429 106.944 25.4948 108.249 23.6473ZM123.888 29.6803C125.722 30.9751 126.15 33.5226 124.845 35.3701C123.54 37.2176 120.996 37.6656 119.162 36.3708C117.329 35.0759 116.901 32.5285 118.206 30.6809C119.511 28.8334 122.055 28.3854 123.888 29.6803ZM141.441 47.0934C142.746 45.2458 142.318 42.6984 140.485 41.4035C138.652 40.1086 136.108 40.5567 134.802 42.4042C133.497 44.2517 133.925 46.7991 135.759 48.094C137.592 49.3889 140.136 48.9409 141.441 47.0934ZM207.823 93.9852C209.128 92.1377 208.7 89.5902 206.866 88.2954C205.033 87.0005 202.489 87.4485 201.184 89.296C199.879 91.1436 200.307 93.691 202.14 94.9859C203.974 96.2808 206.518 95.8327 207.823 93.9852ZM223.462 100.018C225.295 101.313 225.723 103.86 224.418 105.708C223.113 107.555 220.569 108.003 218.736 106.709C216.903 105.414 216.474 102.866 217.78 101.019C219.085 99.1712 221.629 98.7231 223.462 100.018ZM241.014 117.43C242.319 115.583 241.891 113.035 240.057 111.74C238.224 110.446 235.68 110.894 234.375 112.741C233.07 114.589 233.498 117.136 235.331 118.431C237.164 119.726 239.708 119.278 241.014 117.43ZM256.654 123.464C258.487 124.759 258.915 127.306 257.61 129.154C256.305 131.001 253.761 131.449 251.928 130.154C250.094 128.859 249.666 126.312 250.971 124.464C252.276 122.617 254.82 122.169 256.654 123.464ZM135.872 19.7586C137.177 17.9111 136.749 15.3637 134.916 14.0688C133.083 12.7739 130.539 13.222 129.234 15.0695C127.929 16.917 128.357 19.4644 130.19 20.7593C132.023 22.0542 134.567 21.6062 135.872 19.7586ZM151.511 25.7916C153.344 27.0865 153.772 29.6339 152.467 31.4814C151.162 33.329 148.618 33.777 146.785 32.4821C144.952 31.1872 144.524 28.6398 145.829 26.7923C147.134 24.9447 149.678 24.4967 151.511 25.7916ZM169.062 43.2043C170.367 41.3568 169.939 38.8094 168.106 37.5145C166.273 36.2196 163.729 36.6676 162.424 38.5152C161.119 40.3627 161.547 42.9101 163.38 44.205C165.213 45.4999 167.757 45.0519 169.062 43.2043ZM184.703 49.2371C186.536 50.532 186.964 53.0795 185.659 54.927C184.354 56.7745 181.81 57.2225 179.977 55.9277C178.144 54.6328 177.716 52.0854 179.021 50.2378C180.326 48.3903 182.87 47.9423 184.703 49.2371ZM202.256 66.6496C203.561 64.8021 203.133 62.2547 201.3 60.9598C199.467 59.6649 196.923 60.113 195.618 61.9605C194.313 63.808 194.741 66.3554 196.574 67.6503C198.407 68.9452 200.951 68.4972 202.256 66.6496ZM217.896 72.6832C219.729 73.9781 220.157 76.5255 218.852 78.373C217.547 80.2206 215.003 80.6686 213.17 79.3737C211.337 78.0788 210.909 75.5314 212.214 73.6839C213.519 71.8363 216.063 71.3883 217.896 72.6832ZM235.447 90.0958C236.752 88.2483 236.324 85.7008 234.491 84.406C232.658 83.1111 230.114 83.5591 228.809 85.4066C227.504 87.2542 227.932 89.8016 229.765 91.0965C231.598 92.3913 234.142 91.9433 235.447 90.0958ZM251.087 96.1287C252.92 97.4236 253.348 99.9711 252.043 101.819C250.738 103.666 248.194 104.114 246.361 102.819C244.528 101.524 244.099 98.9769 245.405 97.1294C246.71 95.2819 249.254 94.8339 251.087 96.1287ZM268.639 113.542C269.945 111.694 269.516 109.147 267.683 107.852C265.85 106.557 263.306 107.005 262.001 108.853C260.696 110.7 261.124 113.248 262.957 114.543C264.79 115.837 267.334 115.389 268.639 113.542Z" fill="#0D6A2E" fill-opacity="0.19"/>
</svg>
