<svg width="222" height="222" viewBox="0 0 222 222" fill="none" xmlns="http://www.w3.org/2000/svg">
<ellipse cx="4.56164" cy="4.7234" rx="4.56164" ry="4.7234" fill="#FEFEFE" fill-opacity="0.5"/>
<ellipse cx="4.56164" cy="28.3405" rx="4.56164" ry="4.7234" fill="#FEFEFE" fill-opacity="0.5"/>
<ellipse cx="4.56164" cy="51.9574" rx="4.56164" ry="4.7234" fill="#FEFEFE" fill-opacity="0.5"/>
<ellipse cx="4.56164" cy="75.5745" rx="4.56164" ry="4.7234" fill="#FEFEFE" fill-opacity="0.5"/>
<ellipse cx="4.56164" cy="99.1915" rx="4.56164" ry="4.7234" fill="#FEFEFE" fill-opacity="0.5"/>
<ellipse cx="4.56164" cy="122.808" rx="4.56164" ry="4.7234" fill="#FEFEFE" fill-opacity="0.5"/>
<ellipse cx="4.56164" cy="146.426" rx="4.56164" ry="4.7234" fill="#FEFEFE" fill-opacity="0.5"/>
<ellipse cx="4.56164" cy="170.043" rx="4.56164" ry="4.7234" fill="#FEFEFE" fill-opacity="0.5"/>
<ellipse cx="4.56164" cy="193.66" rx="4.56164" ry="4.7234" fill="#FEFEFE" fill-opacity="0.5"/>
<ellipse cx="4.56164" cy="217.277" rx="4.56164" ry="4.7234" fill="#FEFEFE" fill-opacity="0.5"/>
<ellipse cx="25.8488" cy="4.7234" rx="4.56164" ry="4.7234" fill="#FEFEFE" fill-opacity="0.5"/>
<ellipse cx="25.8488" cy="28.3405" rx="4.56164" ry="4.7234" fill="#FEFEFE" fill-opacity="0.5"/>
<ellipse cx="25.8488" cy="51.9574" rx="4.56164" ry="4.7234" fill="#FEFEFE" fill-opacity="0.5"/>
<ellipse cx="25.8488" cy="75.5745" rx="4.56164" ry="4.7234" fill="#FEFEFE" fill-opacity="0.5"/>
<ellipse cx="25.8488" cy="99.1915" rx="4.56164" ry="4.7234" fill="#FEFEFE" fill-opacity="0.5"/>
<ellipse cx="25.8488" cy="122.808" rx="4.56164" ry="4.7234" fill="#FEFEFE" fill-opacity="0.5"/>
<ellipse cx="25.8488" cy="146.426" rx="4.56164" ry="4.7234" fill="#FEFEFE" fill-opacity="0.5"/>
<ellipse cx="25.8488" cy="170.043" rx="4.56164" ry="4.7234" fill="#FEFEFE" fill-opacity="0.5"/>
<ellipse cx="25.8488" cy="193.66" rx="4.56164" ry="4.7234" fill="#FEFEFE" fill-opacity="0.5"/>
<ellipse cx="25.8488" cy="217.277" rx="4.56164" ry="4.7234" fill="#FEFEFE" fill-opacity="0.5"/>
<ellipse cx="47.1368" cy="4.7234" rx="4.56164" ry="4.7234" fill="#FEFEFE" fill-opacity="0.5"/>
<ellipse cx="47.1368" cy="28.3405" rx="4.56164" ry="4.7234" fill="#FEFEFE" fill-opacity="0.5"/>
<ellipse cx="47.1368" cy="51.9574" rx="4.56164" ry="4.7234" fill="#FEFEFE" fill-opacity="0.5"/>
<ellipse cx="47.1368" cy="75.5745" rx="4.56164" ry="4.7234" fill="#FEFEFE" fill-opacity="0.5"/>
<ellipse cx="47.1368" cy="99.1915" rx="4.56164" ry="4.7234" fill="#FEFEFE" fill-opacity="0.5"/>
<ellipse cx="47.1368" cy="122.808" rx="4.56164" ry="4.7234" fill="#FEFEFE" fill-opacity="0.5"/>
<ellipse cx="47.1368" cy="146.426" rx="4.56164" ry="4.7234" fill="#FEFEFE" fill-opacity="0.5"/>
<ellipse cx="47.1368" cy="170.043" rx="4.56164" ry="4.7234" fill="#FEFEFE" fill-opacity="0.5"/>
<ellipse cx="47.1368" cy="193.66" rx="4.56164" ry="4.7234" fill="#FEFEFE" fill-opacity="0.5"/>
<ellipse cx="47.1368" cy="217.277" rx="4.56164" ry="4.7234" fill="#FEFEFE" fill-opacity="0.5"/>
<ellipse cx="68.4249" cy="4.7234" rx="4.56164" ry="4.7234" fill="#FEFEFE" fill-opacity="0.5"/>
<ellipse cx="68.4249" cy="28.3405" rx="4.56164" ry="4.7234" fill="#FEFEFE" fill-opacity="0.5"/>
<ellipse cx="68.4249" cy="51.9574" rx="4.56164" ry="4.7234" fill="#FEFEFE" fill-opacity="0.5"/>
<ellipse cx="68.4249" cy="75.5745" rx="4.56164" ry="4.7234" fill="#FEFEFE" fill-opacity="0.5"/>
<ellipse cx="68.4249" cy="99.1915" rx="4.56164" ry="4.7234" fill="#FEFEFE" fill-opacity="0.5"/>
<ellipse cx="68.4249" cy="122.808" rx="4.56164" ry="4.7234" fill="#FEFEFE" fill-opacity="0.5"/>
<ellipse cx="68.4249" cy="146.426" rx="4.56164" ry="4.7234" fill="#FEFEFE" fill-opacity="0.5"/>
<ellipse cx="68.4249" cy="170.043" rx="4.56164" ry="4.7234" fill="#FEFEFE" fill-opacity="0.5"/>
<ellipse cx="68.4249" cy="193.66" rx="4.56164" ry="4.7234" fill="#FEFEFE" fill-opacity="0.5"/>
<ellipse cx="68.4249" cy="217.277" rx="4.56164" ry="4.7234" fill="#FEFEFE" fill-opacity="0.5"/>
<ellipse cx="89.712" cy="4.7234" rx="4.56164" ry="4.7234" fill="#FEFEFE" fill-opacity="0.5"/>
<ellipse cx="89.712" cy="28.3405" rx="4.56164" ry="4.7234" fill="#FEFEFE" fill-opacity="0.5"/>
<ellipse cx="89.712" cy="51.9574" rx="4.56164" ry="4.7234" fill="#FEFEFE" fill-opacity="0.5"/>
<ellipse cx="89.712" cy="75.5745" rx="4.56164" ry="4.7234" fill="#FEFEFE" fill-opacity="0.5"/>
<ellipse cx="89.712" cy="99.1915" rx="4.56164" ry="4.7234" fill="#FEFEFE" fill-opacity="0.5"/>
<ellipse cx="89.712" cy="122.808" rx="4.56164" ry="4.7234" fill="#FEFEFE" fill-opacity="0.5"/>
<ellipse cx="89.712" cy="146.426" rx="4.56164" ry="4.7234" fill="#FEFEFE" fill-opacity="0.5"/>
<ellipse cx="89.712" cy="170.043" rx="4.56164" ry="4.7234" fill="#FEFEFE" fill-opacity="0.5"/>
<ellipse cx="89.712" cy="193.66" rx="4.56164" ry="4.7234" fill="#FEFEFE" fill-opacity="0.5"/>
<ellipse cx="89.712" cy="217.277" rx="4.56164" ry="4.7234" fill="#FEFEFE" fill-opacity="0.5"/>
<ellipse cx="111" cy="4.7234" rx="4.56164" ry="4.7234" fill="#FEFEFE" fill-opacity="0.5"/>
<ellipse cx="111" cy="28.3405" rx="4.56164" ry="4.7234" fill="#FEFEFE" fill-opacity="0.5"/>
<ellipse cx="111" cy="51.9574" rx="4.56164" ry="4.7234" fill="#FEFEFE" fill-opacity="0.5"/>
<ellipse cx="111" cy="75.5745" rx="4.56164" ry="4.7234" fill="#FEFEFE" fill-opacity="0.5"/>
<ellipse cx="111" cy="99.1915" rx="4.56164" ry="4.7234" fill="#FEFEFE" fill-opacity="0.5"/>
<ellipse cx="111" cy="122.808" rx="4.56164" ry="4.7234" fill="#FEFEFE" fill-opacity="0.5"/>
<ellipse cx="111" cy="146.426" rx="4.56164" ry="4.7234" fill="#FEFEFE" fill-opacity="0.5"/>
<ellipse cx="111" cy="170.043" rx="4.56164" ry="4.7234" fill="#FEFEFE" fill-opacity="0.5"/>
<ellipse cx="111" cy="193.66" rx="4.56164" ry="4.7234" fill="#FEFEFE" fill-opacity="0.5"/>
<ellipse cx="111" cy="217.277" rx="4.56164" ry="4.7234" fill="#FEFEFE" fill-opacity="0.5"/>
<ellipse cx="132.287" cy="4.7234" rx="4.56164" ry="4.7234" fill="#FEFEFE" fill-opacity="0.5"/>
<ellipse cx="132.287" cy="28.3405" rx="4.56164" ry="4.7234" fill="#FEFEFE" fill-opacity="0.5"/>
<ellipse cx="132.287" cy="51.9574" rx="4.56164" ry="4.7234" fill="#FEFEFE" fill-opacity="0.5"/>
<ellipse cx="132.287" cy="75.5745" rx="4.56164" ry="4.7234" fill="#FEFEFE" fill-opacity="0.5"/>
<ellipse cx="132.287" cy="99.1915" rx="4.56164" ry="4.7234" fill="#FEFEFE" fill-opacity="0.5"/>
<ellipse cx="132.287" cy="122.808" rx="4.56164" ry="4.7234" fill="#FEFEFE" fill-opacity="0.5"/>
<ellipse cx="132.287" cy="146.426" rx="4.56164" ry="4.7234" fill="#FEFEFE" fill-opacity="0.5"/>
<ellipse cx="132.287" cy="170.043" rx="4.56164" ry="4.7234" fill="#FEFEFE" fill-opacity="0.5"/>
<ellipse cx="132.287" cy="193.66" rx="4.56164" ry="4.7234" fill="#FEFEFE" fill-opacity="0.5"/>
<ellipse cx="132.287" cy="217.277" rx="4.56164" ry="4.7234" fill="#FEFEFE" fill-opacity="0.5"/>
<ellipse cx="153.575" cy="4.7234" rx="4.56164" ry="4.7234" fill="#FEFEFE" fill-opacity="0.5"/>
<ellipse cx="153.575" cy="28.3405" rx="4.56164" ry="4.7234" fill="#FEFEFE" fill-opacity="0.5"/>
<ellipse cx="153.575" cy="51.9574" rx="4.56164" ry="4.7234" fill="#FEFEFE" fill-opacity="0.5"/>
<ellipse cx="153.575" cy="75.5745" rx="4.56164" ry="4.7234" fill="#FEFEFE" fill-opacity="0.5"/>
<ellipse cx="153.575" cy="99.1915" rx="4.56164" ry="4.7234" fill="#FEFEFE" fill-opacity="0.5"/>
<ellipse cx="153.575" cy="122.808" rx="4.56164" ry="4.7234" fill="#FEFEFE" fill-opacity="0.5"/>
<ellipse cx="153.575" cy="146.426" rx="4.56164" ry="4.7234" fill="#FEFEFE" fill-opacity="0.5"/>
<ellipse cx="153.575" cy="170.043" rx="4.56164" ry="4.7234" fill="#FEFEFE" fill-opacity="0.5"/>
<ellipse cx="153.575" cy="193.66" rx="4.56164" ry="4.7234" fill="#FEFEFE" fill-opacity="0.5"/>
<ellipse cx="153.575" cy="217.277" rx="4.56164" ry="4.7234" fill="#FEFEFE" fill-opacity="0.5"/>
<ellipse cx="174.862" cy="4.7234" rx="4.56164" ry="4.7234" fill="#FEFEFE" fill-opacity="0.5"/>
<ellipse cx="174.862" cy="28.3405" rx="4.56164" ry="4.7234" fill="#FEFEFE" fill-opacity="0.5"/>
<ellipse cx="174.862" cy="51.9574" rx="4.56164" ry="4.7234" fill="#FEFEFE" fill-opacity="0.5"/>
<ellipse cx="174.862" cy="75.5745" rx="4.56164" ry="4.7234" fill="#FEFEFE" fill-opacity="0.5"/>
<ellipse cx="174.862" cy="99.1915" rx="4.56164" ry="4.7234" fill="#FEFEFE" fill-opacity="0.5"/>
<ellipse cx="174.862" cy="122.808" rx="4.56164" ry="4.7234" fill="#FEFEFE" fill-opacity="0.5"/>
<ellipse cx="174.862" cy="146.426" rx="4.56164" ry="4.7234" fill="#FEFEFE" fill-opacity="0.5"/>
<ellipse cx="174.862" cy="170.043" rx="4.56164" ry="4.7234" fill="#FEFEFE" fill-opacity="0.5"/>
<ellipse cx="174.862" cy="193.66" rx="4.56164" ry="4.7234" fill="#FEFEFE" fill-opacity="0.5"/>
<ellipse cx="174.862" cy="217.277" rx="4.56164" ry="4.7234" fill="#FEFEFE" fill-opacity="0.5"/>
<ellipse cx="196.151" cy="4.7234" rx="4.56164" ry="4.7234" fill="#FEFEFE" fill-opacity="0.5"/>
<ellipse cx="196.151" cy="28.3405" rx="4.56164" ry="4.7234" fill="#FEFEFE" fill-opacity="0.5"/>
<ellipse cx="196.151" cy="51.9574" rx="4.56164" ry="4.7234" fill="#FEFEFE" fill-opacity="0.5"/>
<ellipse cx="196.151" cy="75.5745" rx="4.56164" ry="4.7234" fill="#FEFEFE" fill-opacity="0.5"/>
<ellipse cx="196.151" cy="99.1915" rx="4.56164" ry="4.7234" fill="#FEFEFE" fill-opacity="0.5"/>
<ellipse cx="196.151" cy="122.808" rx="4.56164" ry="4.7234" fill="#FEFEFE" fill-opacity="0.5"/>
<ellipse cx="196.151" cy="146.426" rx="4.56164" ry="4.7234" fill="#FEFEFE" fill-opacity="0.5"/>
<ellipse cx="196.151" cy="170.043" rx="4.56164" ry="4.7234" fill="#FEFEFE" fill-opacity="0.5"/>
<ellipse cx="196.151" cy="193.66" rx="4.56164" ry="4.7234" fill="#FEFEFE" fill-opacity="0.5"/>
<ellipse cx="196.151" cy="217.277" rx="4.56164" ry="4.7234" fill="#FEFEFE" fill-opacity="0.5"/>
<ellipse cx="217.439" cy="4.7234" rx="4.56164" ry="4.7234" fill="#FEFEFE" fill-opacity="0.5"/>
<ellipse cx="217.439" cy="28.3405" rx="4.56164" ry="4.7234" fill="#FEFEFE" fill-opacity="0.5"/>
<ellipse cx="217.439" cy="51.9574" rx="4.56164" ry="4.7234" fill="#FEFEFE" fill-opacity="0.5"/>
<ellipse cx="217.439" cy="75.5745" rx="4.56164" ry="4.7234" fill="#FEFEFE" fill-opacity="0.5"/>
<ellipse cx="217.439" cy="99.1915" rx="4.56164" ry="4.7234" fill="#FEFEFE" fill-opacity="0.5"/>
<ellipse cx="217.439" cy="122.808" rx="4.56164" ry="4.7234" fill="#FEFEFE" fill-opacity="0.5"/>
<ellipse cx="217.439" cy="146.426" rx="4.56164" ry="4.7234" fill="#FEFEFE" fill-opacity="0.5"/>
<ellipse cx="217.439" cy="170.043" rx="4.56164" ry="4.7234" fill="#FEFEFE" fill-opacity="0.5"/>
<ellipse cx="217.439" cy="193.66" rx="4.56164" ry="4.7234" fill="#FEFEFE" fill-opacity="0.5"/>
<ellipse cx="217.439" cy="217.277" rx="4.56164" ry="4.7234" fill="#FEFEFE" fill-opacity="0.5"/>
</svg>
