<svg width="225" height="310" viewBox="0 0 225 310" fill="none" xmlns="http://www.w3.org/2000/svg">
<circle cx="3.62465" cy="6.57533" r="6.57533" fill="#0D6A2E" fill-opacity="0.19"/>
<circle cx="3.62465" cy="39.4522" r="6.57533" fill="#0D6A2E" fill-opacity="0.19"/>
<circle cx="3.62465" cy="72.3292" r="6.57533" fill="#0D6A2E" fill-opacity="0.19"/>
<circle cx="3.62465" cy="105.206" r="6.57533" fill="#0D6A2E" fill-opacity="0.19"/>
<circle cx="3.62465" cy="138.082" r="6.57533" fill="#0D6A2E" fill-opacity="0.19"/>
<circle cx="3.62465" cy="170.958" r="6.57533" fill="#0D6A2E" fill-opacity="0.19"/>
<circle cx="3.62465" cy="203.836" r="6.57533" fill="#0D6A2E" fill-opacity="0.19"/>
<circle cx="3.62465" cy="236.712" r="6.57533" fill="#0D6A2E" fill-opacity="0.19"/>
<circle cx="3.62465" cy="269.588" r="6.57533" fill="#0D6A2E" fill-opacity="0.19"/>
<circle cx="3.62465" cy="302.465" r="6.57533" fill="#0D6A2E" fill-opacity="0.19"/>
<circle cx="34.3146" cy="6.57533" r="6.57533" fill="#0D6A2E" fill-opacity="0.19"/>
<circle cx="34.3146" cy="39.4522" r="6.57533" fill="#0D6A2E" fill-opacity="0.19"/>
<circle cx="34.3146" cy="72.3292" r="6.57533" fill="#0D6A2E" fill-opacity="0.19"/>
<circle cx="34.3146" cy="105.206" r="6.57533" fill="#0D6A2E" fill-opacity="0.19"/>
<circle cx="34.3146" cy="138.082" r="6.57533" fill="#0D6A2E" fill-opacity="0.19"/>
<circle cx="34.3146" cy="170.958" r="6.57533" fill="#0D6A2E" fill-opacity="0.19"/>
<circle cx="34.3146" cy="203.836" r="6.57533" fill="#0D6A2E" fill-opacity="0.19"/>
<circle cx="34.3146" cy="236.712" r="6.57533" fill="#0D6A2E" fill-opacity="0.19"/>
<circle cx="34.3146" cy="269.588" r="6.57533" fill="#0D6A2E" fill-opacity="0.19"/>
<circle cx="34.3146" cy="302.465" r="6.57533" fill="#0D6A2E" fill-opacity="0.19"/>
<circle cx="65.0065" cy="6.57533" r="6.57533" fill="#0D6A2E" fill-opacity="0.19"/>
<circle cx="65.0065" cy="39.4522" r="6.57533" fill="#0D6A2E" fill-opacity="0.19"/>
<circle cx="65.0065" cy="72.3292" r="6.57533" fill="#0D6A2E" fill-opacity="0.19"/>
<circle cx="65.0065" cy="105.206" r="6.57533" fill="#0D6A2E" fill-opacity="0.19"/>
<circle cx="65.0065" cy="138.082" r="6.57533" fill="#0D6A2E" fill-opacity="0.19"/>
<circle cx="65.0065" cy="170.958" r="6.57533" fill="#0D6A2E" fill-opacity="0.19"/>
<circle cx="65.0065" cy="203.836" r="6.57533" fill="#0D6A2E" fill-opacity="0.19"/>
<circle cx="65.0065" cy="236.712" r="6.57533" fill="#0D6A2E" fill-opacity="0.19"/>
<circle cx="65.0065" cy="269.588" r="6.57533" fill="#0D6A2E" fill-opacity="0.19"/>
<circle cx="65.0065" cy="302.465" r="6.57533" fill="#0D6A2E" fill-opacity="0.19"/>
<circle cx="95.6847" cy="6.57533" r="6.57533" fill="#0D6A2E" fill-opacity="0.19"/>
<circle cx="95.6847" cy="39.4522" r="6.57533" fill="#0D6A2E" fill-opacity="0.19"/>
<circle cx="95.6847" cy="72.3292" r="6.57533" fill="#0D6A2E" fill-opacity="0.19"/>
<circle cx="95.6847" cy="105.206" r="6.57533" fill="#0D6A2E" fill-opacity="0.19"/>
<circle cx="95.6847" cy="138.082" r="6.57533" fill="#0D6A2E" fill-opacity="0.19"/>
<circle cx="95.6847" cy="170.958" r="6.57533" fill="#0D6A2E" fill-opacity="0.19"/>
<circle cx="95.6847" cy="203.836" r="6.57533" fill="#0D6A2E" fill-opacity="0.19"/>
<circle cx="95.6847" cy="236.712" r="6.57533" fill="#0D6A2E" fill-opacity="0.19"/>
<circle cx="95.6847" cy="269.588" r="6.57533" fill="#0D6A2E" fill-opacity="0.19"/>
<circle cx="95.6847" cy="302.465" r="6.57533" fill="#0D6A2E" fill-opacity="0.19"/>
<circle cx="126.369" cy="6.57533" r="6.57533" fill="#0D6A2E" fill-opacity="0.19"/>
<circle cx="126.369" cy="39.4522" r="6.57533" fill="#0D6A2E" fill-opacity="0.19"/>
<circle cx="126.369" cy="72.3292" r="6.57533" fill="#0D6A2E" fill-opacity="0.19"/>
<circle cx="126.369" cy="105.206" r="6.57533" fill="#0D6A2E" fill-opacity="0.19"/>
<circle cx="126.369" cy="138.082" r="6.57533" fill="#0D6A2E" fill-opacity="0.19"/>
<circle cx="126.369" cy="170.958" r="6.57533" fill="#0D6A2E" fill-opacity="0.19"/>
<circle cx="126.369" cy="203.836" r="6.57533" fill="#0D6A2E" fill-opacity="0.19"/>
<circle cx="126.369" cy="236.712" r="6.57533" fill="#0D6A2E" fill-opacity="0.19"/>
<circle cx="126.369" cy="269.588" r="6.57533" fill="#0D6A2E" fill-opacity="0.19"/>
<circle cx="126.369" cy="302.465" r="6.57533" fill="#0D6A2E" fill-opacity="0.19"/>
<circle cx="157.051" cy="6.57533" r="6.57533" fill="#0D6A2E" fill-opacity="0.19"/>
<circle cx="157.051" cy="39.4522" r="6.57533" fill="#0D6A2E" fill-opacity="0.19"/>
<circle cx="157.051" cy="72.3292" r="6.57533" fill="#0D6A2E" fill-opacity="0.19"/>
<circle cx="157.051" cy="105.206" r="6.57533" fill="#0D6A2E" fill-opacity="0.19"/>
<circle cx="157.051" cy="138.082" r="6.57533" fill="#0D6A2E" fill-opacity="0.19"/>
<circle cx="157.051" cy="170.958" r="6.57533" fill="#0D6A2E" fill-opacity="0.19"/>
<circle cx="157.051" cy="203.836" r="6.57533" fill="#0D6A2E" fill-opacity="0.19"/>
<circle cx="157.051" cy="236.712" r="6.57533" fill="#0D6A2E" fill-opacity="0.19"/>
<circle cx="157.051" cy="269.588" r="6.57533" fill="#0D6A2E" fill-opacity="0.19"/>
<circle cx="157.051" cy="302.465" r="6.57533" fill="#0D6A2E" fill-opacity="0.19"/>
<circle cx="187.738" cy="6.57533" r="6.57533" fill="#0D6A2E" fill-opacity="0.19"/>
<circle cx="187.738" cy="39.4522" r="6.57533" fill="#0D6A2E" fill-opacity="0.19"/>
<circle cx="187.738" cy="72.3292" r="6.57533" fill="#0D6A2E" fill-opacity="0.19"/>
<circle cx="187.738" cy="105.206" r="6.57533" fill="#0D6A2E" fill-opacity="0.19"/>
<circle cx="187.738" cy="138.082" r="6.57533" fill="#0D6A2E" fill-opacity="0.19"/>
<circle cx="187.738" cy="170.958" r="6.57533" fill="#0D6A2E" fill-opacity="0.19"/>
<circle cx="187.738" cy="203.836" r="6.57533" fill="#0D6A2E" fill-opacity="0.19"/>
<circle cx="187.738" cy="236.712" r="6.57533" fill="#0D6A2E" fill-opacity="0.19"/>
<circle cx="187.738" cy="269.588" r="6.57533" fill="#0D6A2E" fill-opacity="0.19"/>
<circle cx="187.738" cy="302.465" r="6.57533" fill="#0D6A2E" fill-opacity="0.19"/>
<circle cx="218.424" cy="6.57533" r="6.57533" fill="#0D6A2E" fill-opacity="0.19"/>
<circle cx="218.424" cy="39.4522" r="6.57533" fill="#0D6A2E" fill-opacity="0.19"/>
<circle cx="218.424" cy="72.3292" r="6.57533" fill="#0D6A2E" fill-opacity="0.19"/>
<circle cx="218.424" cy="105.206" r="6.57533" fill="#0D6A2E" fill-opacity="0.19"/>
<circle cx="218.424" cy="138.082" r="6.57533" fill="#0D6A2E" fill-opacity="0.19"/>
<circle cx="218.424" cy="170.958" r="6.57533" fill="#0D6A2E" fill-opacity="0.19"/>
<circle cx="218.424" cy="203.836" r="6.57533" fill="#0D6A2E" fill-opacity="0.19"/>
<circle cx="218.424" cy="236.712" r="6.57533" fill="#0D6A2E" fill-opacity="0.19"/>
<circle cx="218.424" cy="269.588" r="6.57533" fill="#0D6A2E" fill-opacity="0.19"/>
<circle cx="218.424" cy="302.465" r="6.57533" fill="#0D6A2E" fill-opacity="0.19"/>
</svg>
